<svg width="500" height="500" viewBox="0 0 500 500" fill="none" xmlns="http://www.w3.org/2000/svg">
<path d="M156.4 55C159.714 55 162.4 57.6863 162.4 61V73C162.4 76.3137 159.714 79 156.4 79H142C122.118 79 106 95.1178 106 115V415C106 434.882 122.118 451 142 451H358C377.882 451 394 434.882 394 415V115C394 95.1177 377.882 79 358 79H343.6C340.286 79 337.6 76.3137 337.6 73V61C337.6 57.6863 340.286 55 343.6 55H358C391.137 55 418 81.8629 418 115V415C418 447.878 391.555 474.58 358.776 474.995L358 475H142L141.224 474.995C108.703 474.583 82.4168 448.297 82.0047 415.776L82 415V115C82 81.8629 108.863 55 142 55H156.4Z" fill="white"/>
<path d="M376 385C379.314 385 382 387.686 382 391V397C382 400.314 379.314 403 376 403H124C120.686 403 118 400.314 118 397V391C118 387.686 120.686 385 124 385H376Z" fill="white"/>
<path d="M376 325C379.314 325 382 327.686 382 331V337C382 340.314 379.314 343 376 343H124C120.686 343 118 340.314 118 337V331C118 327.686 120.686 325 124 325H376Z" fill="white"/>
<path d="M376 265C379.314 265 382 267.686 382 271V277C382 280.314 379.314 283 376 283H124C120.686 283 118 280.314 118 277V271C118 267.686 120.686 265 124 265H376Z" fill="white"/>
<path d="M376 205C379.314 205 382 207.686 382 211V217C382 220.314 379.314 223 376 223H124C120.686 223 118 220.314 118 217V211C118 207.686 120.686 205 124 205H376Z" fill="white"/>
<path d="M376 145C379.314 145 382 147.686 382 151V157C382 160.314 379.314 163 376 163H124C120.686 163 118 160.314 118 157V151C118 147.686 120.686 145 124 145H376Z" fill="white"/>
<path fill-rule="evenodd" clip-rule="evenodd" d="M295.6 25C315.482 25 331.6 41.1177 331.6 61V73C331.6 92.8823 315.482 109 295.6 109H204.4C184.518 109 168.4 92.8823 168.4 73V61C168.4 41.1177 184.518 25 204.4 25H295.6ZM204.4 49C197.773 49 192.4 54.3726 192.4 61V73C192.4 79.6274 197.773 85 204.4 85H295.6C302.227 85 307.6 79.6274 307.6 73V61C307.6 54.3726 302.227 49 295.6 49H204.4Z" fill="white"/>
</svg>
