<svg width="500" height="500" viewBox="0 0 500 500" fill="none" xmlns="http://www.w3.org/2000/svg">
<path d="M195 60C202.684 60 209.692 62.8898 215 67.6406C221.137 73.1338 225 81.1154 225 90C225 95.3502 220.798 99.7195 215.515 99.9873L215 100H35C29.4772 100 25 95.5228 25 90C25 73.4315 38.4315 60 55 60H195Z" fill="white"/>
<path fill-rule="evenodd" clip-rule="evenodd" d="M445 100C461.569 100 475 113.431 475 130V420C475 436.31 461.985 449.579 445.774 449.99L445 450H55L54.2256 449.99C38.2723 449.586 25.414 436.728 25.0098 420.774L25 420V130C25 124.477 29.4772 120 35 120H225C232.571 120 239.159 115.793 242.555 109.59C245.207 104.745 249.477 100 255 100H445ZM65 400C65 405.523 69.4772 410 75 410H425C430.523 410 435 405.523 435 400V150C435 144.477 430.523 140 425 140H75C69.4771 140 65 144.477 65 150V400Z" fill="white"/>
</svg>
