<svg width="500" height="500" viewBox="0 0 500 500" fill="none" xmlns="http://www.w3.org/2000/svg">
<path d="M130 145C135.523 145 140 149.477 140 155V425C140 430.523 144.477 435 150 435H350C355.523 435 360 430.523 360 425V155C360 149.477 364.477 145 370 145H390C395.523 145 400 149.477 400 155V435C400 456.746 382.647 474.44 361.032 474.987L360 475H140L138.968 474.987C117.696 474.448 100.552 457.304 100.013 436.032L100 435V155C100 149.477 104.477 145 110 145H130Z" fill="white"/>
<path d="M195 165C197.761 165 200 167.239 200 170V410C200 412.761 197.761 415 195 415H185C182.239 415 180 412.761 180 410V170C180 167.239 182.239 165 185 165H195Z" fill="white"/>
<path d="M255 165C257.761 165 260 167.239 260 170V410C260 412.761 257.761 415 255 415H245C242.239 415 240 412.761 240 410V170C240 167.239 242.239 165 245 165H255Z" fill="white"/>
<path d="M315 165C317.761 165 320 167.239 320 170V410C320 412.761 317.761 415 315 415H305C302.239 415 300 412.761 300 410V170C300 167.239 302.239 165 305 165H315Z" fill="white"/>
<path d="M435 85C440.523 85 445 89.4772 445 95V115C445 120.523 440.523 125 435 125H65C59.4772 125 55 120.523 55 115V95C55 89.4772 59.4772 85 65 85H435Z" fill="white"/>
<path d="M270 25C275.523 25 280 29.4772 280 35V55C280 60.5228 275.523 65 270 65H230C224.477 65 220 60.5228 220 55V35C220 29.4772 224.477 25 230 25H270Z" fill="white"/>
</svg>
