<svg width="500" height="500" viewBox="0 0 500 500" fill="none" xmlns="http://www.w3.org/2000/svg">
<path d="M260 100C265.523 100 270 104.477 270 110V230H390C395.523 230 400 234.477 400 240V260C400 265.523 395.523 270 390 270H270V390C270 395.523 265.523 400 260 400H240C234.477 400 230 395.523 230 390V270H110C104.477 270 100 265.523 100 260V240C100 234.477 104.477 230 110 230H230V110C230 104.477 234.477 100 240 100H260Z" fill="white"/>
<path fill-rule="evenodd" clip-rule="evenodd" d="M250 25C374.264 25 475 125.736 475 250C475 374.264 374.264 475 250 475C125.736 475 25 374.264 25 250C25 125.736 125.736 25 250 25ZM250 65C147.827 65 65 147.827 65 250C65 352.173 147.827 435 250 435C352.173 435 435 352.173 435 250C435 147.827 352.173 65 250 65Z" fill="white"/>
</svg>
