<svg width="500" height="500" viewBox="0 0 500 500" fill="none" xmlns="http://www.w3.org/2000/svg">
<path d="M84.5243 314.841C88.932 307.207 100.768 308.489 104.436 316.505C129.681 371.673 185.364 410 250 410C320.109 410 379.684 364.907 401.308 302.142C402.755 297.943 406.634 295 411.076 295H432.357C438.784 295 443.549 300.989 441.716 307.15C417.126 389.76 340.598 450 250 450C173.328 450 106.733 406.856 73.1673 343.52C71.5996 340.562 71.7267 337.008 73.4006 334.108L84.5243 314.841Z" fill="white"/>
<path d="M250 50C326.672 50 393.266 93.144 426.832 156.479C428.4 159.437 428.272 162.991 426.598 165.891L415.475 185.158C411.067 192.792 399.231 191.51 395.563 183.494C370.318 128.327 314.636 90 250 90C179.891 90 120.316 135.093 98.6916 197.858C97.2448 202.057 93.3657 205 88.9241 205H67.6433C61.2157 205 56.4508 199.011 58.2845 192.85C82.8738 110.24 159.402 50 250 50Z" fill="white"/>
<path d="M78.6603 305C74.8113 311.667 65.1888 311.667 61.3398 305L18.0383 230C14.1892 223.333 19.0005 215 26.6985 215H113.302C121 215 125.811 223.333 121.962 230L78.6603 305Z" fill="white"/>
<path d="M481.962 270C485.811 276.667 481 285 473.302 285H386.699C379.001 285 374.189 276.667 378.038 270L421.34 195C425.189 188.333 434.811 188.333 438.66 195L481.962 270Z" fill="white"/>
</svg>
